<?xml version="1.0" encoding="utf-8"?>
<!-- Generator: Adobe Illustrator 25.4.1, SVG Export Plug-In . SVG Version: 6.00 Build 0)  -->
<svg version="1.1" xmlns="http://www.w3.org/2000/svg" xmlns:xlink="http://www.w3.org/1999/xlink" x="0px" y="0px"
	 viewBox="0 0 1000 1000" style="enable-background:new 0 0 1000 1000;" xml:space="preserve">
<style type="text/css">
	.st0{fill:#E22931;}
	.st1{fill:#F5672E;}
	.st2{fill:#F98F2D;}
	.st3{fill:#FBD031;}
	.st4{fill:#431A1A;}
	.st5{fill:#FFFFFF;}
	.st6{fill:#E6445C;}
	.st7{fill:#BFD6D3;}
	.st8{fill:#A62538;}
</style>
<g id="Layer_2">
	<g>
		<path class="st0" d="M492.63,222.98c-12.29,20.07-20.88,41.83-24.6,65.83c-0.76-0.22-1.52-0.44-2.29-0.65
			c0.8-8.37,1.25-16.82,2.45-25.09c5.32-36.58,19.04-68.96,42.46-96.57c2.84-3.34,4.75-8.26,5.09-12.77
			c0.4-5.29-3.34-9.75-8.49-12.25c-5.55-2.7-10.45-1.35-14.66,2.08c-1.8,1.46-3.22,3.36-4.89,5.15
			c-1.82-8.06,6.31-19.72,17.35-25.14c13.28-6.52,25-2.77,41.23,13.04c1.96-5.9,3.23-12.33,6.12-17.82
			c3.93-7.48,11.13-11.72,18.81-15.21c11.35-5.15,20.69-12.7,27.14-23.39c4.66-7.74,5.93-16.22,2.67-25.7
			c12.11,7.26,18.57,24.81,16.2,42.87c11.5-11.14,26.56-12.35,40.59-16.04c8.85-2.33,16.12-6.66,16.9-17.14
			c0.68-9.07-3.68-16.4-12.32-20.6c-1.27-0.62-2.54-1.26-4.02-1.99c16.58-9.31,28.49-3.67,44.78,20.25
			c6.38-5.92,12.24-12.83,19.51-17.8c15.45-10.58,33.8-10.43,52.52-7.28c19.53,3.29,39,7.79,58.55,10.01
			c20.35,2.31,38.23-3.33,50.66-19.21c4.76-6.08,8.34-13.11,12.79-20.25c6.45,12.65,9.37,25.47,6.73,38.79
			c-3.61,18.21-15.91,29.06-31.24,37.44c-13.02,7.12-25.02,15.45-31.89,29.2c-5.57,11.14-5.58,22.78-0.82,34.56
			c3.69-8.61,6.68-17.8,11.33-25.95c6.36-11.14,16.72-17.97,29.54-20.78c10.6-2.32,19.83,2.13,27.63,9.84
			c6.88,6.8,10.66,14.78,7.75,24.05c-0.81,2.57-2.35,4.85-3.56,7.27c-0.56-0.08-1.11-0.16-1.67-0.24c0.21-1.29,0.67-2.58,0.59-3.88
			c-0.53-8.13-7.73-12.76-14.91-9.41c-8.51,3.97-14.59,10.28-14.79,20.29c-0.16,7.94,0.95,16.02,1.5,24.06
			c5.49-2.13,9.78-4.83,14.48-5.31c4.63-0.47,9.68,1.3,14.79,3.01c-19.88,8.11-22.35,25.3-23.23,43.86
			c-0.44,9.34-2.74,18.44-4.15,27.31c3.38-2.91,7.08-6.73,11.44-9.64c4.35-2.91,9.03-5.91,14.12-7.12
			c21.12-5.01,31.03-23.93,28.27-44.49c-0.16-1.16-0.24-2.32-0.42-4.1c18.01,24.46,21.71,55.2,8.75,76.17
			c-8.5,13.75-19.35,25.95-29.04,38.92c-8.42,11.27-13.86,23.9-14.97,39.99c12.94-9.89,26.05-12.19,41.66-1.67
			c-18.65,2.08-26.64,13.42-30.62,29.21c-5.18,20.57-19.15,33.63-37.59,42.57c-4.35,2.11-8.54,4.5-13.33,7.04
			c30.5,10.93,39.78,24.72,28.68,42.98c-6.15-12.98-16.05-15.8-27.77-12.02c-4.84,1.56-9.82,3.54-13.73,6.57
			c-14.9,11.55-29.4,23.61-43.3,34.87c4.2,3.3,9.1,7.14,14.1,11.07c-1.36,1.46-1.65,1.99-1.85,1.94
			c-18.99-4.31-35.71,1.26-52.18,7.72c-21.76,8.54-44.75,12.65-68.63,13.58c-1.74,0.07-3.56-0.52-5.38-1.48
			c19.06-3.09,36.47-9.79,53.53-17.36c25.24-5.54,46.5-17.86,65.52-34.05c6.94-5.91,13.72-12.08,21.14-17.38
			c10.44-7.45,19.93-16.85,35.98-16.2c-10.83-10.28-21.26-12.1-33.08-7.82c2.5-5.07,4.62-10.47,8.58-13.7
			c12.01-9.79,24.56-18.98,37.25-27.94c7.97-5.62,14.97-11.87,18.58-21.17c1.91-4.9,2.9-10.02-0.28-16.25
			c-3.52,3.76-6.42,7.16-9.63,10.23c-5.82,5.55-15.13,6.27-20.48,1.13c-4.41-4.24-8.15-10.36-1.26-18.89
			c3.34-4.14,7.4-7.75,11.49-11.19c5.88-4.94,12.98-8.72,17.97-14.41c9.96-11.38,11.17-26.95,14.75-41.28
			c2.55-10.19,3.46-21.24,15.71-25.58c-10.42-5.58-19.56-5.18-26.82,1.42c-6.82,6.2-12.59,13.56-18.49,20.69
			c-7.3,8.82-16.12,12.07-26.19,2.37c-7.17-6.9-9.29-13.67-5.23-23.32c4.64-11,9.59-21.95,15.6-32.17
			c14.1-23.94,7.66-55.13-9.01-77.56c-0.06,4.49,0.27,8.76-0.27,12.83c-0.55,4.12-1.73,8.15-3.03,12.06
			c-3.72,11.11-13.4,17.92-23.55,16.84c-12.07-1.29-22.85-10.53-26.04-22.37c-3.72-13.77-1.82-26.69,3.37-38.88
			c7.55-17.72,19.04-31.74,38.19-38.01c2.8-0.92,5.72-1.55,10.06-2.7c-3.88-1.78-6.06-2.84-8.27-3.8
			c-13.29-5.73-26.7-8.77-40.66-6.22c-19.64,3.59-31.39,16.55-41.48,31.91c-4.7,7.15-10.11,13.87-19.25,18.1
			c9-20.93,6.53-35.71-0.65-44.41c-5.53-6.7-13.65-13.26-21.2-11.29c7.02,11.57,7.1,21.72-0.94,27.3
			c-5.52,3.84-11.85,7.59-18.49,8.73c-17.5,3.02-35.25,5.46-53.13,6.55c-25.25,1.54-42.5,14.41-56.35,33.06
			c-1.28,1.72-2.57,3.43-4.29,5.73c-3.44-16.64-6.35-21-15.36-23.86c-0.21,0.31-0.57,0.6-0.6,0.94c-0.05,0.8-0.07,1.64,0.11,2.43
			c2.15,9.28-0.23,16.99-7.13,22.57c-8.75,7.07-17.53,14.17-26.96,20.33c-17.91,11.72-33.53,25.44-43.09,45
			c-2.18,4.47-3.79,9.24-5.67,13.88c0,0,0.03-0.06,0.03-0.06C493.86,220.84,493.25,221.91,492.63,222.98z"/>
		<path class="st1" d="M494.45,219.83c1.87-4.63,3.49-9.41,5.67-13.88c9.56-19.56,25.18-33.28,43.09-45
			c9.42-6.16,18.21-13.26,26.96-20.33c6.91-5.58,9.28-13.29,7.13-22.57c-0.18-0.79-0.17-1.63-0.11-2.43
			c0.02-0.34,0.38-0.63,0.6-0.94c9.01,2.85,11.92,7.22,15.36,23.86c1.72-2.3,3.01-4.01,4.29-5.73
			c13.85-18.65,31.11-31.53,56.35-33.06c17.88-1.09,35.63-3.53,53.13-6.55c6.64-1.15,12.97-4.9,18.49-8.73
			c8.04-5.58,7.96-15.73,0.94-27.3c7.55-1.97,15.67,4.59,21.2,11.29c7.17,8.7,9.65,23.48,0.65,44.41
			c9.14-4.23,14.56-10.95,19.25-18.1c10.09-15.36,21.84-28.33,41.48-31.91c13.96-2.55,27.37,0.49,40.66,6.22
			c2.22,0.96,4.4,2.01,8.27,3.8c-4.33,1.15-7.25,1.79-10.06,2.7c-19.15,6.27-30.64,20.29-38.19,38.01
			c-5.19,12.19-7.09,25.11-3.37,38.88c3.2,11.84,13.97,21.09,26.04,22.37c10.16,1.08,19.83-5.72,23.55-16.84
			c1.31-3.91,2.49-7.94,3.03-12.06c0.54-4.08,0.21-8.34,0.27-12.83c16.67,22.42,23.11,53.61,9.01,77.56
			c-6.02,10.21-10.96,21.16-15.6,32.17c-4.07,9.65-1.94,16.42,5.23,23.32c10.07,9.7,18.89,6.45,26.19-2.37
			c5.9-7.13,11.68-14.49,18.49-20.69c7.26-6.6,16.39-7,26.82-1.42c-12.25,4.34-13.17,15.38-15.71,25.58
			c-3.58,14.33-4.79,29.91-14.75,41.28c-4.98,5.69-12.09,9.46-17.97,14.41c-4.09,3.44-8.15,7.05-11.49,11.19
			c-6.89,8.54-3.15,14.65,1.26,18.89c5.35,5.14,14.66,4.42,20.48-1.13c3.22-3.07,6.11-6.46,9.63-10.23
			c3.18,6.23,2.19,11.35,0.28,16.25c-3.62,9.3-10.62,15.55-18.58,21.17c-12.69,8.96-25.24,18.14-37.25,27.94
			c-3.96,3.23-6.07,8.63-8.58,13.7c11.82-4.28,22.25-2.47,33.08,7.82c-16.04-0.66-25.54,8.75-35.98,16.2
			c-7.43,5.3-14.2,11.46-21.14,17.38c-19.02,16.2-40.28,28.51-65.52,34.05c12.89-9.3,25.78-18.6,38.67-27.89
			c18.95-10.08,35.92-22.74,51.9-37.04c-7.89-3.46-9.31-6.05-9.53-13.85c-0.22-7.96,4.33-13.43,8.35-19
			c9.92-13.74,21.48-25.47,41.05-26.56c-4.84-5.99-10.63-7.12-16.87-6.86c-8.11,0.33-13.59-3.75-17.44-10.87
			c-3.34-6.17-3.58-12.32,0.86-16.86c5.03-5.15,10.86-9.71,17.01-13.55c7.55-4.7,14.9-9.36,19.05-17.53
			c4.38-8.63,7.77-18.13,18.73-20.8c0.15-0.04,0.1-0.73,0.21-1.78c-7.62-3.02-15.03-2.63-22.25-0.21
			c-17.59,5.91-28.79,7.35-42.47-7.13c-9.73-10.3-15.7-28.45-6.43-41.4c5.57-7.78,13.3-13.94,20.09-20.81
			c3.95-4,8.61-7.49,11.75-12.07c4.27-6.26,6.78-13.49,3.21-22.4c-1.14,0.81-2.02,1.22-2.6,1.89c-7.77,9.02-17.97,11.54-30.09,8.97
			c-8.19-1.74-16.22-1.92-23.51,1.64c-3.92,1.92-7.44,4.57-11.82,7.32c0.74-4.67,1.85-8.6,1.93-12.63
			c0.33-15.45-3.25-30.69-7.68-45.7c-4.78-16.16-0.18-31.61,13.07-40c1-0.64,1.68-1.74,3.12-3.28c-9.42-3.46-16.69-0.64-23.02,3.15
			c-9.57,5.73-14.43,15.89-20.73,24.72c-5.24,7.34-9.82,15.52-18.73,19.52c-5.29,2.38-12.99,1.91-16.07-1.79
			c-4.05-4.86-3.82-9.84-0.72-14.61c0.84-1.3,1.54-2.71,2.21-4.13c3.25-6.94,3.5-21.03-4.41-25.91c-1.75,2.79-3.18,5.85-5.3,8.31
			c-12.67,14.6-29.42,17-48.63,12.23c-15.83-3.93-30.73-2.55-43.68,6.07c-10.67,7.1-20.77,15-31.24,22.38
			c-3.62,2.55-7.6,4.62-11.42,6.9c-11.96,5.39-24.36,10.06-35.78,16.33c-19.42,10.66-35.36,25.43-48.49,43.14
			C497.82,216.07,496.08,217.91,494.45,219.83z"/>
		<path class="st2" d="M583.58,154.58c3.82-2.29,7.8-4.35,11.42-6.9c10.47-7.38,20.57-15.28,31.24-22.38
			c12.95-8.62,27.86-10,43.68-6.07c19.21,4.77,35.96,2.38,48.63-12.23c2.13-2.45,3.55-5.52,5.3-8.31
			c7.91,4.88,7.66,18.97,4.41,25.91c-0.66,1.42-1.36,2.83-2.21,4.13c-3.1,4.78-3.33,9.76,0.72,14.61c3.08,3.7,10.79,4.17,16.07,1.79
			c8.91-4,13.5-12.19,18.73-19.52c6.3-8.83,11.15-18.99,20.73-24.72c6.33-3.79,13.6-6.61,23.02-3.15c-1.44,1.54-2.12,2.65-3.12,3.28
			c-13.25,8.39-17.85,23.84-13.07,40c4.44,15.01,8.02,30.25,7.68,45.7c-0.09,4.04-1.19,7.97-1.93,12.63
			c4.38-2.75,7.9-5.4,11.82-7.32c7.29-3.56,15.32-3.39,23.51-1.64c12.13,2.58,22.32,0.06,30.09-8.97c0.58-0.67,1.46-1.07,2.6-1.89
			c3.56,8.92,1.06,16.14-3.21,22.4c-3.13,4.59-7.79,8.07-11.75,12.07c-6.78,6.87-14.52,13.03-20.09,20.81
			c-9.27,12.94-3.31,31.09,6.43,41.4c13.68,14.48,24.88,13.04,42.47,7.13c7.22-2.43,14.63-2.81,22.25,0.21
			c-0.11,1.06-0.06,1.75-0.21,1.78c-10.96,2.68-14.35,12.18-18.73,20.8c-4.15,8.17-11.51,12.82-19.05,17.53
			c-6.15,3.83-11.97,8.4-17.01,13.55c-4.44,4.54-4.19,10.69-0.86,16.86c3.86,7.12,9.33,11.21,17.44,10.87
			c6.24-0.26,12.03,0.87,16.87,6.86c-19.57,1.09-31.13,12.82-41.05,26.56c-4.02,5.57-8.57,11.04-8.35,19
			c0.21,7.8,1.64,10.38,9.53,13.85c-15.98,14.3-32.95,26.96-51.9,37.04c8.46-10.92,17.73-21.3,25.22-32.89
			c16.44-25.46,23.88-54.41,24.51-85.68c0.05-2.62,0.32-5.21,0.49-7.82c2.51-9.81,4.99-19.55,14.58-25.02
			c3.53-2.01,6.97-4.48,9.65-7.46c3.19-3.54,5.53-7.86,8.24-11.85c-0.5-0.4-1.01-0.8-1.51-1.2c-0.92,0.3-1.96,0.43-2.75,0.92
			c-13.65,8.51-24.07,5.02-32.34-4.16c-1.7-1.89-3.6-3.6-5.41-5.39c-3.85-9.31-7.7-18.61-11.55-27.92
			c-1.63-3.22-3.26-6.44-4.89-9.65c0,0,0.01,0.05,0.01,0.05c-0.17-3.55-0.15-7.1-0.55-10.65c-1.38-12.44,3.64-19.33,11.24-22.39
			c1.75-0.7,3.44-1.52,5.16-2.28c0.08-0.61,0.16-1.22,0.24-1.83c-3.13-1.66-6.26-4.49-9.38-4.75c-6.82-0.56-13.75-0.35-20.42,0.51
			c-11.12,1.43-21.44-5.78-24.13-16.94c-2.37-9.85,2.25-17.55,4.93-25.9c2.88-8.99,1.45-17.52-4.72-26.04
			c-0.66,0.87-1.09,1.25-1.3,1.74c-0.55,1.26-1.07,2.53-1.5,3.84c-3.28,9.88-6.84,13.36-17.47,12.07
			c-12.48-1.52-25.19-3.84-37.27-7.86c-19.06-6.34-37.9-12.53-57.7-10.83c-13.03,1.12-25.88,2.84-37.54,8.45
			C607.54,149.78,595.56,152.18,583.58,154.58z"/>
		<path class="st3" d="M619.52,147.38c11.66-5.6,24.52-7.33,37.54-8.45c19.8-1.7,38.64,4.49,57.7,10.83
			c12.08,4.02,24.78,6.34,37.27,7.86c10.63,1.29,14.19-2.19,17.47-12.07c0.43-1.31,0.95-2.59,1.5-3.84c0.22-0.49,0.64-0.87,1.3-1.74
			c6.17,8.52,7.6,17.05,4.72,26.04c-2.68,8.35-7.3,16.05-4.93,25.9c2.68,11.16,13.01,18.37,24.13,16.94
			c6.68-0.86,13.61-1.07,20.42-0.51c3.13,0.26,6.25,3.09,9.38,4.75c-0.08,0.61-0.16,1.22-0.24,1.83c-1.72,0.76-3.41,1.58-5.16,2.28
			c-7.6,3.06-12.62,9.95-11.24,22.39c0.39,3.54,0.38,7.1,0.55,10.65c-6.43-9.1-12.21-18.73-19.42-27.19
			c-18.25-21.41-39.1-39.78-64.25-52.79c-32.73-16.93-66.76-23.87-102.02-22.33C622.7,147.98,621.09,147.57,619.52,147.38z"/>
		<path class="st0" d="M975.12,125.07c1.49-0.03,2.22,1.82,1.09,2.81c-7.47,6.56-14.78,13.32-22.75,19.23
			c-5.82,4.32-12.94,6.98-19.46,10.37c-5.62-37.7,19.15-71.8,62.92-81.36c-9.59,7.88-10.6,18.98-14.89,28.39
			c-2.86,6.28-6.85,11.99-10.64,18.01c-0.72,1.14,0.11,2.62,1.46,2.59L975.12,125.07z M949.73,125.46
			c12.29-7.3,19.2-16.79,22.55-30.87C959.59,101.55,951.28,109.96,949.73,125.46z"/>
		<path class="st0" d="M927.92,83.83c0.84-8.81,2.39-18.2,2.49-27.72c0.12-11.79,3.83-21.28,13.74-27.06
			c8.71-5.08,17.99-9.26,27.02-13.84c0.51,0.68,1.02,1.36,1.53,2.04c-2.52,2.69-5.66,5.01-7.43,8.17
			c-3.31,5.9-6.92,11.95-8.44,18.54C953.16,59.84,944.6,71.81,931.83,81C930.09,82.25,928.36,83.51,927.92,83.83z"/>
		<path class="st3" d="M826.36,287.75c1.81,1.79,3.71,3.51,5.41,5.39c8.27,9.18,18.69,12.66,32.34,4.16
			c0.79-0.49,1.83-0.62,2.75-0.92c0.5,0.4,1.01,0.8,1.51,1.2c-2.71,3.98-5.05,8.3-8.24,11.85c-2.69,2.98-6.12,5.45-9.65,7.46
			c-9.59,5.47-12.07,15.21-14.58,25.02c-0.49-4.79-0.63-9.61-1.52-14.35C831.87,314.27,829.05,301.02,826.36,287.75z"/>
		<path class="st3" d="M809.92,250.18c1.63,3.22,3.26,6.44,4.89,9.65C813.18,256.62,811.55,253.4,809.92,250.18z"/>
		<path class="st1" d="M492.63,222.98c0.62-1.07,1.23-2.14,1.85-3.2C493.86,220.84,493.25,221.91,492.63,222.98z"/>
		<path class="st1" d="M949.73,125.46c1.55-15.5,9.86-23.91,22.55-30.87C968.93,108.67,962.02,118.16,949.73,125.46z"/>
	</g>
</g>
<g id="Layer_1">
	<g>
		<path class="st4" d="M774.65,200.8c-21.7-19.97-46.48-34.45-72.66-43.53c-22.17-7.7-45.34-11.53-68.46-11.53
			c-56.48,0-112.8,22.81-153.98,67.83L356.57,347.99l-20.05,21.92L213.7,504.12c-49.03,53.59-64.96,125.85-48.9,191.54
			c9.48,38.79,30.09,75.27,61.64,104.28c3.77,3.46,7.61,6.75,11.54,9.88c2.63,2.08,5.29,4.11,7.99,6.04
			c9.42,6.79,19.27,12.7,29.44,17.72c2.91,1.43,5.84,2.79,8.79,4.07c2.95,1.3,5.94,2.51,8.92,3.67
			c50.81,19.41,107.42,18.11,157.17-3.35c1.65-0.71,3.28-1.43,4.92-2.19c4.88-2.25,9.68-4.71,14.41-7.36
			c4.73-2.64,9.37-5.49,13.91-8.53c3.04-2.03,6.03-4.15,8.96-6.36c10.29-7.69,20.03-16.49,29.05-26.34l104.67-114.39l18.14-19.82
			l10.04-10.97l10.01-10.95l14.75-16.12l108.24-118.29c36.78-40.18,54.94-90.89,54.94-141.44
			C842.34,298.53,819.56,242.09,774.65,200.8z M605.2,651.7l-0.85,0.95L499.68,767.06c-17.29,18.87-37.84,33.55-61.1,43.59
			c-22.5,9.69-46.39,14.61-71.01,14.61c-44.93,0-87.92-16.8-121.07-47.25c-26.17-24.06-44.44-54.99-52.87-89.44
			c-0.37-1.49-0.7-2.96-1.02-4.45c-0.33-1.49-0.63-2.96-0.91-4.45c-0.3-1.49-0.56-2.97-0.8-4.46c-0.02-0.02-0.02-0.05-0.02-0.07
			c-0.24-1.47-0.46-2.94-0.67-4.4c-0.06-0.39-0.11-0.76-0.15-1.15c-0.24-1.71-0.45-3.44-0.63-5.15c-0.22-2.12-0.41-4.22-0.56-6.32
			c-0.07-1.06-0.15-2.12-0.19-3.16c-0.07-1.06-0.11-2.1-0.15-3.16c-0.07-2.08-0.11-4.18-0.11-6.27c0-5.73,0.26-11.44,0.82-17.1
			c0.22-2.38,0.5-4.76,0.83-7.12c0.8-6.01,1.91-11.98,3.34-17.85c0.48-1.99,0.98-3.96,1.54-5.91c3.39-12.29,8.11-24.25,14.1-35.61
			c1.06-2.01,2.15-4,3.28-5.97c6.49-11.27,14.25-21.92,23.22-31.74l122.81-134.21l222.59,204.66l0.67,0.61l40.84,37.54L605.2,651.7z
			 M765.52,476.51L658.16,593.86l-0.88,0.95l-14.74,16.12l-39.94-36.73l-0.57-0.52L378.44,368.09l122.98-134.4
			c17.29-18.89,37.84-33.56,61.1-43.58c22.5-9.71,46.39-14.61,71.01-14.61c10.04,0,20.01,0.84,29.83,2.49
			c6.08,1,12.09,2.36,18.05,4.02c3.66,1,7.29,2.14,10.89,3.38c23.13,8.01,44.09,20.58,62.29,37.34
			c18.85,17.33,33.48,37.95,43.5,61.27c9.67,22.55,14.58,46.5,14.58,71.18C812.66,400.2,795.93,443.3,765.52,476.51z"/>
		<path class="st5" d="M812.64,355.16c0,45.03-16.73,88.14-47.13,121.34L658.14,593.85l-0.87,0.95l-14.75,16.12l-39.93-36.72
			l-0.58-0.52L378.42,368.08l122.98-134.4c17.29-18.89,37.84-33.56,61.1-43.58c22.5-9.71,46.39-14.61,71-14.61
			c10.04,0,20.02,0.84,29.83,2.49c6.09,1,12.09,2.36,18.05,4.02c3.66,1,7.29,2.14,10.88,3.38c23.13,8.01,44.1,20.58,62.29,37.34
			c18.85,17.33,33.48,37.95,43.5,61.27C807.73,306.53,812.64,330.48,812.64,355.16z"/>
		<path class="st6" d="M622.47,632.83l-17.29,18.87l-0.85,0.95L499.66,767.06c-17.29,18.87-37.84,33.54-61.1,43.58
			c-22.5,9.69-46.39,14.61-71.01,14.61c-44.93,0-87.92-16.79-121.07-47.25c-26.17-24.06-44.44-54.98-52.87-89.44
			c-0.37-1.49-0.71-2.96-1.02-4.45c-0.33-1.49-0.63-2.96-0.91-4.44c-0.3-1.49-0.56-2.98-0.8-4.46c-0.02-0.02-0.02-0.06-0.02-0.07
			c-0.24-1.47-0.46-2.94-0.67-4.41c-0.3-2.1-0.56-4.2-0.78-6.3c-0.22-2.12-0.41-4.22-0.56-6.33c-0.07-1.06-0.15-2.12-0.19-3.16
			c-0.07-1.06-0.11-2.1-0.15-3.16c-0.07-2.08-0.11-4.18-0.11-6.26c0-5.73,0.26-11.44,0.82-17.11c0.22-2.38,0.5-4.76,0.83-7.12
			c0.8-6.01,1.91-11.98,3.34-17.85c0.48-1.99,0.98-3.96,1.54-5.91c3.39-12.29,8.11-24.25,14.1-35.61c1.06-2.01,2.15-4,3.28-5.97
			c6.49-11.27,14.25-21.92,23.22-31.74l122.81-134.21l222.59,204.66l0.67,0.61L622.47,632.83z"/>
		<path class="st7" d="M622.49,632.83L605.2,651.7l-39.45-39.55l15.9-16.86L622.49,632.83z"/>
		<path class="st7" d="M812.66,355.16c0,45.04-16.73,88.14-47.14,121.34L658.16,593.86l-0.88,0.95l-14.74,16.12l-39.94-36.73
			l-0.58-0.52L712.25,456.8c22.59-23.97,39.66-52.83,48.67-84.55C793.96,256.19,697.56,191.83,681.4,182
			c3.66,1,7.29,2.14,10.89,3.38c23.13,8.01,44.09,20.58,62.29,37.34c18.85,17.33,33.48,37.95,43.5,61.27
			C807.74,306.54,812.66,330.49,812.66,355.16z"/>
		<path class="st8" d="M622.51,632.83l-17.29,18.87l-0.85,0.95L499.69,767.06c-17.29,18.87-37.84,33.54-61.1,43.58
			c-22.5,9.69-46.39,14.61-71.01,14.61c-44.93,0-87.92-16.79-121.07-47.25c-26.17-24.06-44.44-54.98-52.87-89.44
			c-0.37-1.49-0.7-2.96-1.02-4.44c-0.33-1.49-0.63-2.96-0.91-4.45c-0.3-1.49-0.56-2.98-0.8-4.46c-0.02-0.02-0.02-0.06-0.02-0.07
			c-0.24-1.47-0.46-2.94-0.67-4.41c-0.06-0.39-0.11-0.76-0.15-1.15c5.82,10.01,71.34,117.14,191.69,82.75
			c31.66-9.04,60.43-26.14,84.34-48.81l114.88-108.85l0.67,0.61L622.51,632.83z"/>
		<path class="st5" d="M273.87,600.11c-1.43,0-2.86-0.54-3.93-1.64c-2.17-2.18-2.17-5.71,0-7.88l13.45-13.48
			c2.17-2.18,5.69-2.18,7.87,0c2.17,2.18,2.17,5.71,0,7.88l-13.45,13.48C276.71,599.57,275.3,600.11,273.87,600.11z"/>
		<path class="st5" d="M268.42,697.7c-2.1,0-4.1-1.19-5.05-3.2c-13.43-28.6-6.2-67.29-5.88-68.93c0.57-3.04,3.49-5.01,6.51-4.43
			c3.02,0.58,4.99,3.52,4.41,6.53c-0.07,0.37-6.84,36.77,5.01,62.07c1.32,2.79,0.11,6.12-2.67,7.42c-0.76,0.35-1.58,0.54-2.37,0.54
			H268.42z"/>
		<path class="st5" d="M296.6,741.03c-1.43,0-2.86-0.54-3.93-1.64l-13.13-13.17c-2.17-2.17-2.17-5.71,0-7.88
			c2.17-2.18,5.69-2.18,7.86,0l13.13,13.16c2.17,2.17,2.17,5.71,0,7.89C299.44,740.49,298.03,741.03,296.6,741.03z"/>
	</g>
</g>
</svg>
