<svg width="10" height="10" viewBox="0 0 10 10" fill="none" xmlns="http://www.w3.org/2000/svg">
<g clip-path="url(#clip0_3806_4135)">
<path d="M8.20628 1.49601C7.95244 1.26243 7.66259 1.09302 7.35647 0.986888C7.09721 0.896851 6.82623 0.852051 6.55569 0.852051C5.89507 0.852051 5.23639 1.1189 4.75475 1.64541L3.31634 3.21757L3.08182 3.47398L1.64536 5.04374C1.07195 5.67052 0.885588 6.51564 1.07347 7.28399C1.18433 7.73766 1.42537 8.16435 1.79441 8.50362C1.83845 8.54407 1.88336 8.58256 1.92936 8.6191C1.96016 8.64346 1.99119 8.66716 2.02286 8.68978C2.13308 8.76916 2.24828 8.83832 2.36717 8.89704C2.40123 8.91378 2.43551 8.92966 2.47001 8.94466C2.5045 8.95989 2.53943 8.97402 2.57436 8.98751C3.1686 9.21456 3.83074 9.19933 4.41262 8.94836C4.43192 8.9401 4.45102 8.93162 4.47011 8.9227C4.52717 8.89638 4.58336 8.86768 4.63868 8.83658C4.69401 8.8057 4.74824 8.77242 4.8014 8.73675C4.83698 8.71305 4.87191 8.68826 4.90619 8.66238C5.0266 8.57234 5.1405 8.46947 5.24594 8.35421L6.47021 7.01628L6.68239 6.78444L6.79976 6.65613L6.91692 6.52804L7.0894 6.33948L8.35533 4.95588C8.78555 4.48591 8.99795 3.89284 8.99795 3.30152C8.99795 2.63908 8.73153 1.97903 8.20628 1.49601ZM6.2244 6.76987L6.21442 6.78097L4.99015 8.11911C4.78795 8.33986 4.54756 8.51145 4.2755 8.62888C4.01233 8.74219 3.7329 8.79982 3.445 8.79982C2.91954 8.79982 2.41664 8.60344 2.02894 8.24721C1.72281 7.96579 1.50911 7.60412 1.41062 7.20113C1.40628 7.18374 1.40237 7.16656 1.39869 7.14916C1.39478 7.13176 1.39131 7.11458 1.38805 7.09718C1.38458 7.07978 1.38155 7.06238 1.37873 7.04499C1.37851 7.04477 1.37851 7.04433 1.37851 7.04412C1.37569 7.02693 1.37308 7.00975 1.3707 6.99257C1.37005 6.98801 1.3694 6.98366 1.36896 6.97909C1.36614 6.95908 1.36376 6.93885 1.36159 6.91885C1.35898 6.89405 1.35681 6.86948 1.35508 6.8449C1.35421 6.83251 1.35334 6.82011 1.35291 6.80793C1.35204 6.79554 1.35161 6.78336 1.35117 6.77096C1.3503 6.7466 1.34987 6.72203 1.34987 6.69767C1.34987 6.63069 1.35291 6.56392 1.35942 6.49759C1.36202 6.46975 1.36527 6.44192 1.36918 6.4143C1.37851 6.34405 1.39153 6.27424 1.40823 6.20552C1.41387 6.18225 1.41973 6.15919 1.42624 6.13636C1.46594 5.9926 1.52105 5.85276 1.59112 5.71988C1.60349 5.6964 1.61629 5.67313 1.62952 5.65007C1.70546 5.51828 1.79615 5.39367 1.90115 5.27884L3.33761 3.70907L5.94106 6.10287L5.94887 6.11004L6.4266 6.54913L6.2244 6.76987ZM8.09954 4.72079L6.84381 6.0933L6.83361 6.10439L6.66113 6.29294L6.19403 5.86342L6.1873 5.85733L3.57213 3.45267L5.01054 1.88073C5.21274 1.65977 5.45313 1.48818 5.72519 1.37096C5.98836 1.25743 6.26779 1.20002 6.55569 1.20002C6.67306 1.20002 6.78978 1.2098 6.90455 1.22916C6.97571 1.2409 7.04601 1.25678 7.11565 1.27613C7.15839 1.28788 7.20091 1.30115 7.243 1.31572C7.51354 1.40945 7.7587 1.55647 7.97154 1.75241C8.19196 1.9551 8.36314 2.19629 8.48029 2.46901C8.59333 2.73281 8.65082 3.01292 8.65082 3.30152C8.65082 3.82825 8.45513 4.33237 8.09954 4.72079Z" fill="url(#paint0_linear_3806_4135)"/>
<path d="M8.20628 1.49601C7.95244 1.26243 7.66259 1.09302 7.35647 0.986888C7.09721 0.896851 6.82623 0.852051 6.55569 0.852051C5.89507 0.852051 5.23639 1.1189 4.75475 1.64541L3.31634 3.21757L3.08182 3.47398L1.64536 5.04374C1.07195 5.67052 0.885588 6.51564 1.07347 7.28399C1.18433 7.73766 1.42537 8.16435 1.79441 8.50362C1.83845 8.54407 1.88336 8.58256 1.92936 8.6191C1.96016 8.64346 1.99119 8.66716 2.02286 8.68978C2.13308 8.76916 2.24828 8.83832 2.36717 8.89704C2.40123 8.91378 2.43551 8.92966 2.47001 8.94466C2.5045 8.95989 2.53943 8.97402 2.57436 8.98751C3.1686 9.21456 3.83074 9.19933 4.41262 8.94836C4.43192 8.9401 4.45102 8.93162 4.47011 8.9227C4.52717 8.89638 4.58336 8.86768 4.63868 8.83658C4.69401 8.8057 4.74824 8.77242 4.8014 8.73675C4.83698 8.71305 4.87191 8.68826 4.90619 8.66238C5.0266 8.57234 5.1405 8.46947 5.24594 8.35421L6.47021 7.01628L6.68239 6.78444L6.79976 6.65613L6.91692 6.52804L7.0894 6.33948L8.35533 4.95588C8.78555 4.48591 8.99795 3.89284 8.99795 3.30152C8.99795 2.63908 8.73153 1.97903 8.20628 1.49601ZM6.2244 6.76987L6.21442 6.78097L4.99015 8.11911C4.78795 8.33986 4.54756 8.51145 4.2755 8.62888C4.01233 8.74219 3.7329 8.79982 3.445 8.79982C2.91954 8.79982 2.41664 8.60344 2.02894 8.24721C1.72281 7.96579 1.50911 7.60412 1.41062 7.20113C1.40628 7.18374 1.40237 7.16656 1.39869 7.14916C1.39478 7.13176 1.39131 7.11458 1.38805 7.09718C1.38458 7.07978 1.38155 7.06238 1.37873 7.04499C1.37851 7.04477 1.37851 7.04433 1.37851 7.04412C1.37569 7.02693 1.37308 7.00975 1.3707 6.99257C1.37005 6.98801 1.3694 6.98366 1.36896 6.97909C1.36614 6.95908 1.36376 6.93885 1.36159 6.91885C1.35898 6.89405 1.35681 6.86948 1.35508 6.8449C1.35421 6.83251 1.35334 6.82011 1.35291 6.80793C1.35204 6.79554 1.35161 6.78336 1.35117 6.77096C1.3503 6.7466 1.34987 6.72203 1.34987 6.69767C1.34987 6.63069 1.35291 6.56392 1.35942 6.49759C1.36202 6.46975 1.36527 6.44192 1.36918 6.4143C1.37851 6.34405 1.39153 6.27424 1.40823 6.20552C1.41387 6.18225 1.41973 6.15919 1.42624 6.13636C1.46594 5.9926 1.52105 5.85276 1.59112 5.71988C1.60349 5.6964 1.61629 5.67313 1.62952 5.65007C1.70546 5.51828 1.79615 5.39367 1.90115 5.27884L3.33761 3.70907L5.94106 6.10287L5.94887 6.11004L6.4266 6.54913L6.2244 6.76987ZM8.09954 4.72079L6.84381 6.0933L6.83361 6.10439L6.66113 6.29294L6.19403 5.86342L6.1873 5.85733L3.57213 3.45267L5.01054 1.88073C5.21274 1.65977 5.45313 1.48818 5.72519 1.37096C5.98836 1.25743 6.26779 1.20002 6.55569 1.20002C6.67306 1.20002 6.78978 1.2098 6.90455 1.22916C6.97571 1.2409 7.04601 1.25678 7.11565 1.27613C7.15839 1.28788 7.20091 1.30115 7.243 1.31572C7.51354 1.40945 7.7587 1.55647 7.97154 1.75241C8.19196 1.9551 8.36314 2.19629 8.48029 2.46901C8.59333 2.73281 8.65082 3.01292 8.65082 3.30152C8.65082 3.82825 8.45513 4.33237 8.09954 4.72079Z" fill="black" fill-opacity="0.2"/>
<path d="M8.65046 3.3017C8.65046 3.82843 8.45477 4.33255 8.09918 4.72096L6.84345 6.09347L6.83325 6.10457L6.66077 6.29312L6.19367 5.8636L6.18695 5.85751L3.57178 3.45284L5.01019 1.8809C5.21239 1.65995 5.45277 1.48836 5.72483 1.37113C5.988 1.25761 6.26744 1.2002 6.55533 1.2002C6.67271 1.2002 6.78943 1.20998 6.9042 1.22934C6.97536 1.24108 7.04565 1.25696 7.11529 1.27631C7.15803 1.28806 7.20056 1.30132 7.24265 1.31589C7.51319 1.40963 7.75835 1.55664 7.97118 1.75259C8.19161 1.95528 8.36278 2.19647 8.47994 2.46919C8.59297 2.73299 8.65046 3.0131 8.65046 3.3017Z" fill="white"/>
<path d="M8.65102 3.30175C8.65102 3.82848 8.45532 4.3326 8.09974 4.72102L6.844 6.09353L6.83381 6.10462L6.66133 6.29317L6.19423 5.86365L6.1875 5.85756L7.47664 4.49049C7.74089 4.21016 7.94049 3.87263 8.04593 3.50161C8.43233 2.14411 7.30482 1.39141 7.11585 1.27637C7.15859 1.28811 7.20111 1.30138 7.2432 1.31595C7.51374 1.40968 7.7589 1.5567 7.97173 1.75265C8.19216 1.95534 8.36334 2.19652 8.48049 2.46924C8.59352 2.73304 8.65102 3.01315 8.65102 3.30175Z" fill="url(#paint2_linear_3806_4135)" fill-opacity="0.3"/>
<path d="M6.42634 6.54904L6.22414 6.76978L6.21416 6.78088L4.98989 8.11902C4.78769 8.33977 4.5473 8.51136 4.27524 8.6288C4.01207 8.7421 3.73264 8.79973 3.44474 8.79973C2.91927 8.79973 2.41637 8.60335 2.02868 8.24712C1.72255 7.9657 1.50885 7.60403 1.41036 7.20105C1.40602 7.18365 1.40211 7.16647 1.39842 7.14907C1.39452 7.13167 1.39105 7.11449 1.38779 7.09709C1.38432 7.07969 1.38128 7.06229 1.37846 7.0449C1.37825 7.04468 1.37825 7.04424 1.37825 7.04403C1.37543 7.02685 1.37282 7.00966 1.37044 6.99248C1.36697 6.96791 1.36393 6.94333 1.36132 6.91876C1.35872 6.89397 1.35655 6.86939 1.35482 6.84481C1.35395 6.83242 1.35308 6.82002 1.35265 6.80784C1.35178 6.79545 1.35134 6.78327 1.35091 6.77087C1.35004 6.74651 1.34961 6.72194 1.34961 6.69758C1.34961 6.6306 1.35265 6.56383 1.35916 6.4975C1.36176 6.46966 1.36501 6.44183 1.36892 6.41421C1.37825 6.34396 1.39126 6.27415 1.40797 6.20543C1.41361 6.18216 1.41947 6.1591 1.42598 6.13627C1.46568 5.99251 1.52079 5.85268 1.59086 5.7198C1.60323 5.69631 1.61603 5.67304 1.62926 5.64998C1.7052 5.51819 1.79588 5.39358 1.90089 5.27875L3.33735 3.70898L5.9408 6.10278L5.94861 6.10995L6.42634 6.54904Z" fill="#53D38E"/>
<path d="M6.42634 6.54904L6.22414 6.76978L6.21416 6.78088L4.98989 8.11902C4.78769 8.33977 4.5473 8.51136 4.27524 8.6288C4.01207 8.7421 3.73264 8.79973 3.44474 8.79973C2.91927 8.79973 2.41637 8.60335 2.02868 8.24712C1.72255 7.9657 1.50885 7.60403 1.41036 7.20105C1.40602 7.18365 1.40211 7.16647 1.39842 7.14907C1.39452 7.13167 1.39105 7.11449 1.38779 7.09709C1.38432 7.07969 1.38128 7.06229 1.37846 7.0449C1.37825 7.04468 1.37825 7.04424 1.37825 7.04403C1.37543 7.02685 1.37282 7.00966 1.37044 6.99248C1.36697 6.96791 1.36393 6.94333 1.36132 6.91876C1.35872 6.89397 1.35655 6.86939 1.35482 6.84481C1.35395 6.83242 1.35308 6.82002 1.35265 6.80784C1.35178 6.79545 1.35134 6.78327 1.35091 6.77087C1.35004 6.74651 1.34961 6.72194 1.34961 6.69758C1.34961 6.6306 1.35265 6.56383 1.35916 6.4975C1.36176 6.46966 1.36501 6.44183 1.36892 6.41421C1.37825 6.34396 1.39126 6.27415 1.40797 6.20543C1.41361 6.18216 1.41947 6.1591 1.42598 6.13627C1.46568 5.99251 1.52079 5.85268 1.59086 5.7198C1.60323 5.69631 1.61603 5.67304 1.62926 5.64998C1.7052 5.51819 1.79588 5.39358 1.90089 5.27875L3.33735 3.70898L5.9408 6.10278L5.94861 6.10995L6.42634 6.54904Z" fill="url(#paint3_linear_3806_4135)"/>
<path d="M6.42636 6.54895L6.22416 6.76969L5.7627 6.30712L5.94863 6.10986L6.42636 6.54895Z" fill="#BED5D2"/>
<path d="M8.65102 3.30175C8.65102 3.82848 8.45532 4.3326 8.09974 4.72102L6.844 6.09353L6.83381 6.10462L6.66133 6.29317L6.19423 5.86365L6.1875 5.85756L7.47664 4.49049C7.74089 4.21016 7.94049 3.87263 8.04593 3.50161C8.43233 2.14411 7.30482 1.39141 7.11585 1.27637C7.15859 1.28811 7.20111 1.30138 7.2432 1.31595C7.51374 1.40968 7.7589 1.5567 7.97173 1.75265C8.19216 1.95534 8.36334 2.19652 8.48049 2.46924C8.59352 2.73304 8.65102 3.01315 8.65102 3.30175Z" fill="white"/>
<path d="M8.65102 3.30175C8.65102 3.82848 8.45532 4.3326 8.09974 4.72102L6.844 6.09353L6.83381 6.10462L6.66133 6.29317L6.19423 5.86365L6.1875 5.85756L7.47664 4.49049C7.74089 4.21016 7.94049 3.87263 8.04593 3.50161C8.43233 2.14411 7.30482 1.39141 7.11585 1.27637C7.15859 1.28811 7.20111 1.30138 7.2432 1.31595C7.51374 1.40968 7.7589 1.5567 7.97173 1.75265C8.19216 1.95534 8.36334 2.19652 8.48049 2.46924C8.59352 2.73304 8.65102 3.01315 8.65102 3.30175Z" fill="url(#paint2_linear_3806_4135)" fill-opacity="0.3"/>
<path d="M6.42678 6.54929L6.22458 6.77004L6.2146 6.78113L4.99033 8.11928C4.78813 8.34002 4.54774 8.51161 4.27568 8.62905C4.01251 8.74235 3.73308 8.79999 3.44518 8.79999C2.91971 8.79999 2.41681 8.6036 2.02912 8.24737C1.72299 7.96595 1.50929 7.60429 1.4108 7.2013C1.40646 7.1839 1.40255 7.16672 1.39886 7.14932C1.39496 7.13192 1.39149 7.11474 1.38823 7.09734C1.38476 7.07994 1.38172 7.06255 1.3789 7.04515C1.37869 7.04493 1.37869 7.04449 1.37869 7.04428C1.37587 7.0271 1.37326 7.00992 1.37088 6.99273C1.37023 6.98817 1.36957 6.98382 1.36914 6.97925C1.43726 7.09625 2.20355 8.34937 3.61115 7.94703C3.98149 7.84134 4.31798 7.64126 4.59764 7.37615L5.94124 6.10303L5.94905 6.1102L6.42678 6.54929Z" fill="url(#paint3_linear_3806_4135)"/>
<path d="M6.42678 6.54929L6.22458 6.77004L6.2146 6.78113L4.99033 8.11928C4.78813 8.34002 4.54774 8.51161 4.27568 8.62905C4.01251 8.74235 3.73308 8.79999 3.44518 8.79999C2.91971 8.79999 2.41681 8.6036 2.02912 8.24737C1.72299 7.96595 1.50929 7.60429 1.4108 7.2013C1.40646 7.1839 1.40255 7.16672 1.39886 7.14932C1.39496 7.13192 1.39149 7.11474 1.38823 7.09734C1.38476 7.07994 1.38172 7.06255 1.3789 7.04515C1.37869 7.04493 1.37869 7.04449 1.37869 7.04428C1.37587 7.0271 1.37326 7.00992 1.37088 6.99273C1.37023 6.98817 1.36957 6.98382 1.36914 6.97925C1.43726 7.09625 2.20355 8.34937 3.61115 7.94703C3.98149 7.84134 4.31798 7.64126 4.59764 7.37615L5.94124 6.10303L5.94905 6.1102L6.42678 6.54929Z" fill="black" fill-opacity="0.2"/>
</g>
<defs>
<linearGradient id="paint0_linear_3806_4135" x1="7.44272" y1="19.3489" x2="17.4957" y2="7.83325" gradientUnits="userSpaceOnUse">
<stop stop-color="#FFD700"/>
<stop offset="1" stop-color="#FFA500"/>
</linearGradient>
<linearGradient id="paint1_linear_3806_4135" x1="5.43879" y1="15.0598" x2="11.576" y2="7.78527" gradientUnits="userSpaceOnUse">
<stop stop-color="#FFD700"/>
<stop offset="1" stop-color="#FFA500"/>
</linearGradient>
<linearGradient id="paint2_linear_3806_4135" x1="8.1718" y1="12.4623" x2="13.5142" y2="9.34418" gradientUnits="userSpaceOnUse">
<stop stop-color="#FFD700"/>
<stop offset="1" stop-color="#FFA500"/>
</linearGradient>
<linearGradient id="paint3_linear_3806_4135" x1="5.44295" y1="12.1164" x2="7.90669" y2="6.62482" gradientUnits="userSpaceOnUse">
<stop stop-color="#FFD700"/>
<stop offset="1" stop-color="#FFA500"/>
</linearGradient>
<clipPath id="clip0_3806_4135">
<rect width="7.99499" height="8.29574" fill="white" transform="translate(1.00293 0.852051)"/>
</clipPath>
</defs>
</svg>
