<svg width="16" height="16" viewBox="0 0 16 16" fill="none" xmlns="http://www.w3.org/2000/svg">
<g clip-path="url(#clip0_11713_725467)">
<path d="M13.1298 2.39385C12.7237 2.02014 12.2599 1.74907 11.7701 1.57926C11.3553 1.43521 10.9217 1.36353 10.4889 1.36353C9.43187 1.36353 8.37799 1.79048 7.60737 2.63291L5.30592 5.14836L4.93067 5.55861L2.63235 8.07023C1.71489 9.07307 1.41671 10.4253 1.71732 11.6546C1.8947 12.3805 2.28036 13.0632 2.87082 13.606C2.94129 13.6708 3.01314 13.7323 3.08674 13.7908C3.13603 13.8298 3.18567 13.8677 3.23635 13.9039C3.41269 14.0309 3.59701 14.1416 3.78724 14.2355C3.84174 14.2623 3.89658 14.2877 3.95178 14.3117C4.00697 14.3361 4.06286 14.3587 4.11874 14.3803C5.06953 14.7435 6.12896 14.7192 7.05995 14.3176C7.09085 14.3044 7.12139 14.2908 7.15194 14.2766C7.24323 14.2345 7.33314 14.1885 7.42166 14.1388C7.51018 14.0894 7.59696 14.0361 7.682 13.9791C7.73893 13.9411 7.79482 13.9015 7.84967 13.86C8.04232 13.716 8.22456 13.5514 8.39327 13.367L10.3521 11.2263L10.6916 10.8554L10.8794 10.6501L11.0668 10.4451L11.3428 10.1434L13.3683 7.92965C14.0566 7.1777 14.3965 6.22879 14.3965 5.28267C14.3965 4.22277 13.9702 3.16669 13.1298 2.39385ZM9.95881 10.832L9.94284 10.8498L7.984 12.9908C7.66048 13.344 7.27586 13.6186 6.84057 13.8065C6.4195 13.9878 5.9724 14.08 5.51176 14.08C4.67102 14.08 3.86638 13.7657 3.24607 13.1958C2.75627 12.7455 2.41435 12.1668 2.25675 11.5221C2.24981 11.4942 2.24356 11.4667 2.23766 11.4389C2.23141 11.4111 2.22586 11.3836 2.22065 11.3557C2.2151 11.3279 2.21024 11.3001 2.20573 11.2722C2.20538 11.2719 2.20538 11.2712 2.20538 11.2708C2.20087 11.2433 2.1967 11.2158 2.19288 11.1884C2.19184 11.1811 2.1908 11.1741 2.19011 11.1668C2.18559 11.1348 2.18178 11.1024 2.1783 11.0704C2.17414 11.0307 2.17067 10.9914 2.16789 10.9521C2.1665 10.9323 2.16511 10.9124 2.16442 10.8929C2.16303 10.8731 2.16234 10.8536 2.16164 10.8338C2.16025 10.7948 2.15956 10.7555 2.15956 10.7165C2.15956 10.6093 2.16442 10.5025 2.17483 10.3964C2.179 10.3518 2.1842 10.3073 2.19045 10.2631C2.20538 10.1507 2.22621 10.039 2.25294 9.92907C2.26196 9.89184 2.27133 9.85495 2.28175 9.81842C2.34527 9.58841 2.43344 9.36467 2.54556 9.15206C2.56535 9.11448 2.58583 9.07725 2.60701 9.04036C2.7285 8.82949 2.8736 8.63011 3.04161 8.44638L5.33994 5.93476L9.50546 9.76483L9.51796 9.77631L10.2823 10.4789L9.95881 10.832ZM12.959 7.5535L10.9499 9.74952L10.9335 9.76726L10.6576 10.069L9.91021 9.38172L9.89945 9.37197L5.71518 5.52451L8.01663 3.00941C8.34016 2.65587 8.72477 2.38133 9.16007 2.19377C9.58114 2.01214 10.0282 1.92027 10.4889 1.92027C10.6767 1.92027 10.8634 1.93593 11.0471 1.9669C11.1609 1.98569 11.2734 2.01109 11.3848 2.04206C11.4532 2.06085 11.5212 2.08208 11.5886 2.10539C12.0214 2.25536 12.4137 2.49059 12.7542 2.80411C13.1069 3.12841 13.3808 3.51431 13.5682 3.95066C13.7491 4.37274 13.8411 4.82092 13.8411 5.28267C13.8411 6.12545 13.528 6.93203 12.959 7.5535Z" fill="#18463E"/>
<path d="M13.8407 5.28257C13.8407 6.12534 13.5276 6.93193 12.9587 7.5534L10.9495 9.74941L10.9332 9.76716L10.6572 10.0688L9.90987 9.38161L9.89911 9.37187L5.71484 5.5244L8.0163 3.0093C8.33982 2.65577 8.72444 2.38122 9.15973 2.19367C9.5808 2.01203 10.0279 1.92017 10.4885 1.92017C10.6763 1.92017 10.8631 1.93582 11.0467 1.96679C11.1606 1.98558 11.273 2.01099 11.3845 2.04195C11.4529 2.06074 11.5209 2.08197 11.5882 2.10528C12.0211 2.25526 12.4134 2.49048 12.7539 2.804C13.1066 3.12831 13.3805 3.5142 13.5679 3.95055C13.7488 4.37263 13.8407 4.82081 13.8407 5.28257Z" fill="white"/>
<path d="M10.282 10.4789L9.95843 10.8321L9.94246 10.8498L7.98362 12.9909C7.6601 13.3441 7.27549 13.6186 6.84019 13.8065C6.41912 13.9878 5.97202 14.08 5.51139 14.08C4.67064 14.08 3.866 13.7658 3.24569 13.1958C2.75589 12.7456 2.41397 12.1669 2.25638 11.5221C2.24943 11.4943 2.24318 11.4668 2.23728 11.4389C2.23103 11.4111 2.22548 11.3836 2.22027 11.3558C2.21472 11.3279 2.20986 11.3001 2.20535 11.2723C2.205 11.2719 2.205 11.2712 2.205 11.2709C2.20049 11.2434 2.19632 11.2159 2.1925 11.1884C2.18695 11.1491 2.18209 11.1098 2.17792 11.0705C2.17376 11.0308 2.17029 10.9915 2.16751 10.9521C2.16612 10.9323 2.16473 10.9125 2.16404 10.893C2.16265 10.8732 2.16196 10.8537 2.16126 10.8338C2.15987 10.7949 2.15918 10.7555 2.15918 10.7166C2.15918 10.6094 2.16404 10.5026 2.17445 10.3964C2.17862 10.3519 2.18383 10.3074 2.19007 10.2632C2.205 10.1508 2.22583 10.0391 2.25256 9.92912C2.26158 9.89189 2.27095 9.85501 2.28137 9.81847C2.34489 9.58846 2.43306 9.36472 2.54519 9.15211C2.56497 9.11453 2.58545 9.0773 2.60663 9.04042C2.72812 8.82955 2.87322 8.63016 3.04123 8.44644L5.33956 5.93481L9.50508 9.76488L9.51758 9.77637L10.282 10.4789Z" fill="#53D38E"/>
<path d="M10.2823 10.4789L9.95881 10.832L9.22047 10.0919L9.51796 9.77631L10.2823 10.4789Z" fill="#BED5D2"/>
<path d="M13.8411 5.28267C13.8411 6.12545 13.528 6.93203 12.959 7.5535L10.9499 9.74952L10.9335 9.76726L10.6576 10.069L9.91021 9.38172L9.89944 9.37197L11.9621 7.18466C12.3849 6.73613 12.7042 6.19608 12.8729 5.60245C13.4912 3.43045 11.6871 2.22614 11.3848 2.04206C11.4532 2.06085 11.5212 2.08208 11.5886 2.10539C12.0214 2.25536 12.4137 2.49059 12.7542 2.80411C13.1069 3.12841 13.3808 3.51431 13.5682 3.95066C13.7491 4.37274 13.8411 4.82092 13.8411 5.28267Z" fill="#BED5D2"/>
<path d="M10.2827 10.4789L9.95913 10.8321L9.94317 10.8499L7.98433 12.9909C7.66081 13.3441 7.27619 13.6186 6.84089 13.8065C6.41983 13.9878 5.97273 14.08 5.51209 14.08C4.67135 14.08 3.86671 13.7658 3.24639 13.1958C2.75659 12.7456 2.41467 12.1669 2.25708 11.5221C2.25014 11.4943 2.24389 11.4668 2.23799 11.439C2.23174 11.4111 2.22618 11.3836 2.22098 11.3558C2.21542 11.328 2.21056 11.3001 2.20605 11.2723C2.2057 11.2719 2.2057 11.2712 2.2057 11.2709C2.20119 11.2434 2.19703 11.2159 2.19321 11.1884C2.19217 11.1811 2.19112 11.1742 2.19043 11.1668C2.29943 11.3541 3.52548 13.359 5.77764 12.7153C6.37019 12.5462 6.90858 12.2261 7.35603 11.8019L9.50579 9.76489L9.51828 9.77638L10.2827 10.4789Z" fill="#268D65"/>
<path d="M3.75835 9.86649C3.73162 9.86649 3.70489 9.85639 3.68476 9.83586C3.64414 9.79515 3.64414 9.72904 3.68476 9.68833L3.93642 9.43605C3.97704 9.39534 4.04299 9.39534 4.08361 9.43605C4.12422 9.47676 4.12422 9.54288 4.08361 9.58359L3.83194 9.83586C3.81146 9.85639 3.78508 9.86649 3.75835 9.86649Z" fill="white"/>
<path d="M3.65636 11.6929C3.61714 11.6929 3.57965 11.6706 3.56194 11.6331C3.31062 11.0979 3.446 10.3738 3.45191 10.3432C3.46267 10.2864 3.51717 10.2495 3.57375 10.2603C3.63033 10.2711 3.66712 10.3261 3.65636 10.3825C3.65497 10.3894 3.52827 11.0707 3.75009 11.544C3.77473 11.5962 3.75217 11.6585 3.7001 11.6828C3.68587 11.6894 3.6706 11.6929 3.65567 11.6929H3.65636Z" fill="white"/>
<path d="M4.18365 12.5037C4.15692 12.5037 4.13019 12.4936 4.11006 12.4731L3.86429 12.2267C3.82368 12.186 3.82368 12.1199 3.86429 12.0792C3.90491 12.0384 3.97086 12.0384 4.01147 12.0792L4.25724 12.3255C4.29785 12.3662 4.29785 12.4323 4.25724 12.4731C4.23676 12.4936 4.21038 12.5037 4.18365 12.5037Z" fill="white"/>
</g>
<defs>
<clipPath id="clip0_11713_725467">
<rect width="12.792" height="13.2732" fill="white" transform="translate(1.60449 1.36353)"/>
</clipPath>
</defs>
</svg>
